<?xml version="1.0" encoding="UTF-8"?>
<svg xmlns="http://www.w3.org/2000/svg" width="512" height="512" viewBox="0 0 512 512">
<rect x="0" y="0" width="512" height="512" fill="#12141a" />
<circle cx="307.82" cy="201.63" r="4.27" fill="#3a6ea5" />
<circle cx="312.32" cy="171.10" r="4.27" fill="#3d71a7" />
<circle cx="309.32" cy="137.93" r="4.27" fill="#3f74a9" />
<circle cx="298.04" cy="104.87" r="4.27" fill="#4276ab" />
<circle cx="278.41" cy="74.96" r="4.27" fill="#4479ad" />
<circle cx="251.11" cy="51.23" r="4.27" fill="#477caf" />
<circle cx="217.62" cy="36.49" r="4.27" fill="#497fb1" />
<circle cx="180.06" cy="33.00" r="4.27" fill="#4c82b3" />
<circle cx="141.14" cy="42.27" r="4.27" fill="#4e84b5" />
<circle cx="103.92" cy="64.84" r="4.27" fill="#5187b7" />
<circle cx="71.58" cy="100.18" r="4.27" fill="#548ab9" />
<circle cx="47.15" cy="146.67" r="4.27" fill="#568dbb" />
<circle cx="33.30" cy="201.63" r="4.27" fill="#5990bd" />
<circle cx="32.00" cy="261.46" r="4.27" fill="#5b92bf" />
<circle cx="44.40" cy="321.94" r="4.27" fill="#5e95c1" />
<circle cx="70.64" cy="378.45" r="4.27" fill="#6098c3" />
<circle cx="109.77" cy="426.36" r="4.27" fill="#639bc5" />
<circle cx="159.76" cy="461.40" r="4.27" fill="#669ec7" />
<circle cx="217.62" cy="480.00" r="4.27" fill="#68a0c9" />
<circle cx="279.54" cy="479.63" r="4.27" fill="#6ba3cb" />
<circle cx="341.15" cy="459.05" r="4.27" fill="#6da6cd" />
<circle cx="397.87" cy="418.48" r="4.27" fill="#70a9cf" />
<circle cx="445.17" cy="359.69" r="4.27" fill="#72acd1" />
<circle cx="479.00" cy="285.89" r="4.27" fill="#75aed3" />
<circle cx="307.82" cy="201.63" r="4.27" fill="#5e96c1" />
<circle cx="312.32" cy="171.10" r="4.27" fill="#6097c2" />
<circle cx="309.32" cy="137.93" r="4.27" fill="#6199c3" />
<circle cx="298.04" cy="104.87" r="4.27" fill="#629ac4" />
<circle cx="278.41" cy="74.96" r="4.27" fill="#649cc5" />
<circle cx="251.11" cy="51.23" r="4.27" fill="#659dc6" />
<circle cx="217.62" cy="36.49" r="4.27" fill="#679fc7" />
<circle cx="180.06" cy="33.00" r="4.27" fill="#68a1c9" />
<circle cx="141.14" cy="42.27" r="4.27" fill="#6aa2ca" />
<circle cx="103.92" cy="64.84" r="4.27" fill="#6ba4cb" />
<circle cx="71.58" cy="100.18" r="4.27" fill="#6da6cd" />
<circle cx="47.15" cy="146.67" r="4.27" fill="#6fa8ce" />
<circle cx="33.30" cy="201.63" r="4.27" fill="#71aacf" />
<circle cx="32.00" cy="261.46" r="4.27" fill="#73acd1" />
<circle cx="44.40" cy="321.94" r="4.27" fill="#74aed2" />
<circle cx="70.64" cy="378.45" r="4.27" fill="#76b0d4" />
<circle cx="109.77" cy="426.36" r="4.27" fill="#78b2d5" />
<circle cx="159.76" cy="461.40" r="4.27" fill="#7ab4d7" />
<circle cx="217.62" cy="480.00" r="4.27" fill="#7cb7d8" />
<circle cx="279.54" cy="479.63" r="4.27" fill="#7eb9da" />
<circle cx="341.15" cy="459.05" r="4.27" fill="#80bbdb" />
<circle cx="397.87" cy="418.48" r="4.27" fill="#82bddd" />
<circle cx="445.17" cy="359.69" r="4.27" fill="#85c0df" />
<circle cx="479.00" cy="285.89" r="4.27" fill="#87c2e0" />
<circle cx="307.82" cy="201.63" r="4.27" fill="#98c4d5" />
<circle cx="312.32" cy="171.10" r="4.27" fill="#98c3d4" />
<circle cx="309.32" cy="137.93" r="4.27" fill="#99c3d3" />
<circle cx="298.04" cy="104.87" r="4.27" fill="#9ac2d1" />
<circle cx="278.41" cy="74.96" r="4.27" fill="#9bc2cf" />
<circle cx="251.11" cy="51.23" r="4.27" fill="#9cc1ce" />
<circle cx="217.62" cy="36.49" r="4.27" fill="#9dc0cc" />
<circle cx="180.06" cy="33.00" r="4.27" fill="#9ec0ca" />
<circle cx="141.14" cy="42.27" r="4.27" fill="#a0bfc8" />
<circle cx="103.92" cy="64.84" r="4.27" fill="#a1bec6" />
<circle cx="71.58" cy="100.18" r="4.27" fill="#a2bdc3" />
<circle cx="47.15" cy="146.67" r="4.27" fill="#a3bdc1" />
<circle cx="33.30" cy="201.63" r="4.27" fill="#a5bcbf" />
<circle cx="32.00" cy="261.46" r="4.27" fill="#a6bbbc" />
<circle cx="44.40" cy="321.94" r="4.27" fill="#a8baba" />
<circle cx="70.64" cy="378.45" r="4.27" fill="#a9b9b7" />
<circle cx="109.77" cy="426.36" r="4.27" fill="#abb8b4" />
<circle cx="159.76" cy="461.40" r="4.27" fill="#acb7b1" />
<circle cx="217.62" cy="480.00" r="4.27" fill="#aeb6af" />
<circle cx="279.54" cy="479.63" r="4.27" fill="#b0b5ac" />
<circle cx="341.15" cy="459.05" r="4.27" fill="#b2b4a9" />
<circle cx="397.87" cy="418.48" r="4.27" fill="#b3b3a6" />
<circle cx="445.17" cy="359.69" r="4.27" fill="#b5b1a3" />
<circle cx="479.00" cy="285.89" r="4.27" fill="#b7b09f" />
<circle cx="307.82" cy="201.63" r="4.27" fill="#de985d" />
<circle cx="312.32" cy="171.10" r="4.27" fill="#de985c" />
<circle cx="309.32" cy="137.93" r="4.27" fill="#df975b" />
<circle cx="298.04" cy="104.87" r="4.27" fill="#df975a" />
<circle cx="278.41" cy="74.96" r="4.27" fill="#e09758" />
<circle cx="251.11" cy="51.23" r="4.27" fill="#e19657" />
<circle cx="217.62" cy="36.49" r="4.27" fill="#e19656" />
<circle cx="180.06" cy="33.00" r="4.27" fill="#e29555" />
<circle cx="141.14" cy="42.27" r="4.27" fill="#e39553" />
<circle cx="103.92" cy="64.84" r="4.27" fill="#e49452" />
<circle cx="71.58" cy="100.18" r="4.27" fill="#e59450" />
<circle cx="47.15" cy="146.67" r="4.27" fill="#e6934e" />
<circle cx="33.30" cy="201.63" r="4.27" fill="#e7924d" />
<circle cx="32.00" cy="261.46" r="4.27" fill="#e8924b" />
<circle cx="44.40" cy="321.94" r="4.27" fill="#e99149" />
<circle cx="70.64" cy="378.45" r="4.27" fill="#ea9047" />
<circle cx="109.77" cy="426.36" r="4.27" fill="#eb9045" />
<circle cx="159.76" cy="461.40" r="4.27" fill="#ec8f43" />
<circle cx="217.62" cy="480.00" r="4.27" fill="#ed8e41" />
<circle cx="279.54" cy="479.63" r="4.27" fill="#ef8d3f" />
<circle cx="341.15" cy="459.05" r="4.27" fill="#f08d3d" />
<circle cx="397.87" cy="418.48" r="4.27" fill="#f18c3b" />
<circle cx="445.17" cy="359.69" r="4.27" fill="#f38b38" />
<circle cx="479.00" cy="285.89" r="4.27" fill="#f48a36" />
</svg>