<?xml version="1.0" encoding="UTF-8"?>
<svg xmlns="http://www.w3.org/2000/svg" width="400" height="320" viewBox="0 0 400 320">
<rect x="0" y="0" width="400" height="320" fill="#101218" />
<rect x="40" y="240" width="40" height="40" fill="#3a6ea5" />
<rect x="80" y="240" width="40" height="40" fill="#487db0" />
<rect x="120" y="240" width="40" height="40" fill="#568dbb" />
<rect x="160" y="240" width="40" height="40" fill="#649cc6" />
<rect x="200" y="240" width="40" height="40" fill="#72abd0" />
<rect x="240" y="240" width="40" height="40" fill="#80bbdb" />
<rect x="280" y="240" width="40" height="40" fill="#8ecae6" />
<rect x="320" y="240" width="40" height="40" fill="#9fbfc9" />
<rect x="40" y="200" width="40" height="40" fill="#487db0" />
<rect x="80" y="200" width="40" height="40" fill="#568dbb" />
<rect x="120" y="200" width="40" height="40" fill="#649cc6" />
<rect x="160" y="200" width="40" height="40" fill="#72abd0" />
<rect x="200" y="200" width="40" height="40" fill="#80bbdb" />
<rect x="240" y="200" width="40" height="40" fill="#8ecae6" />
<rect x="280" y="200" width="40" height="40" fill="#9fbfc9" />
<rect x="320" y="200" width="40" height="40" fill="#b0b5ab" />
<rect x="40" y="160" width="40" height="40" fill="#568dbb" />
<rect x="80" y="160" width="40" height="40" fill="#649cc6" />
<rect x="120" y="160" width="40" height="40" fill="#72abd0" />
<rect x="160" y="160" width="40" height="40" fill="#80bbdb" />
<rect x="200" y="160" width="40" height="40" fill="#8ecae6" />
<rect x="240" y="160" width="40" height="40" fill="#9fbfc9" />
<rect x="280" y="160" width="40" height="40" fill="#b0b5ab" />
<rect x="320" y="160" width="40" height="40" fill="#c1aa8e" />
<rect x="40" y="120" width="40" height="40" fill="#649cc6" />
<rect x="80" y="120" width="40" height="40" fill="#72abd0" />
<rect x="120" y="120" width="40" height="40" fill="#80bbdb" />
<rect x="160" y="120" width="40" height="40" fill="#8ecae6" />
<rect x="200" y="120" width="40" height="40" fill="#9fbfc9" />
<rect x="240" y="120" width="40" height="40" fill="#b0b5ab" />
<rect x="280" y="120" width="40" height="40" fill="#c1aa8e" />
<rect x="320" y="120" width="40" height="40" fill="#d29f71" />
<rect x="40" y="80" width="40" height="40" fill="#72abd0" />
<rect x="80" y="80" width="40" height="40" fill="#80bbdb" />
<rect x="120" y="80" width="40" height="40" fill="#8ecae6" />
<rect x="160" y="80" width="40" height="40" fill="#9fbfc9" />
<rect x="200" y="80" width="40" height="40" fill="#b0b5ab" />
<rect x="240" y="80" width="40" height="40" fill="#c1aa8e" />
<rect x="280" y="80" width="40" height="40" fill="#d29f71" />
<rect x="320" y="80" width="40" height="40" fill="#e39553" />
<rect x="40" y="40" width="40" height="40" fill="#80bbdb" />
<rect x="80" y="40" width="40" height="40" fill="#8ecae6" />
<rect x="120" y="40" width="40" height="40" fill="#9fbfc9" />
<rect x="160" y="40" width="40" height="40" fill="#b0b5ab" />
<rect x="200" y="40" width="40" height="40" fill="#c1aa8e" />
<rect x="240" y="40" width="40" height="40" fill="#d29f71" />
<rect x="280" y="40" width="40" height="40" fill="#e39553" />
<rect x="320" y="40" width="40" height="40" fill="#f48a36" />
</svg>