<?xml version="1.0" encoding="UTF-8"?>
<svg xmlns="http://www.w3.org/2000/svg" width="512" height="512" viewBox="0 0 512 512">
<rect x="0" y="0" width="512" height="512" fill="#12141a" />
<circle cx="249.12" cy="145.78" r="4.27" fill="#4cc9f0" />
<circle cx="443.60" cy="300.39" r="4.27" fill="#f48a36" />
<circle cx="153.62" cy="380.54" r="4.27" fill="#4cc9f0" />
<circle cx="262.27" cy="297.58" r="4.27" fill="#f48a36" />
<circle cx="479.00" cy="349.26" r="4.27" fill="#4cc9f0" />
<circle cx="272.08" cy="144.27" r="4.27" fill="#4cc9f0" />
<circle cx="126.19" cy="133.96" r="4.27" fill="#f48a36" />
<circle cx="360.50" cy="75.98" r="4.27" fill="#4cc9f0" />
<circle cx="129.09" cy="299.51" r="4.27" fill="#4cc9f0" />
<circle cx="192.88" cy="297.24" r="4.27" fill="#4cc9f0" />
<circle cx="376.57" cy="128.99" r="4.27" fill="#f48a36" />
<circle cx="190.95" cy="401.93" r="4.27" fill="#4cc9f0" />
<circle cx="177.50" cy="395.65" r="4.27" fill="#f48a36" />
<circle cx="136.78" cy="480.00" r="4.27" fill="#f48a36" />
<circle cx="39.04" cy="79.13" r="4.27" fill="#4cc9f0" />
<circle cx="178.79" cy="33.00" r="4.27" fill="#4cc9f0" />
<circle cx="226.26" cy="445.23" r="4.27" fill="#4cc9f0" />
<circle cx="312.80" cy="387.61" r="4.27" fill="#4cc9f0" />
<circle cx="200.46" cy="400.98" r="4.27" fill="#4cc9f0" />
<circle cx="419.92" cy="430.96" r="4.27" fill="#f48a36" />
<circle cx="187.20" cy="42.86" r="4.27" fill="#f48a36" />
<circle cx="246.73" cy="417.15" r="4.27" fill="#f48a36" />
<circle cx="431.42" cy="338.43" r="4.27" fill="#4cc9f0" />
<circle cx="350.03" cy="452.06" r="4.27" fill="#4cc9f0" />
<circle cx="32.00" cy="426.46" r="4.27" fill="#f48a36" />
<circle cx="193.27" cy="460.10" r="4.27" fill="#f48a36" />
<circle cx="141.53" cy="275.57" r="4.27" fill="#f48a36" />
<circle cx="274.11" cy="287.79" r="4.27" fill="#f48a36" />
<circle cx="123.65" cy="465.25" r="4.27" fill="#4cc9f0" />
<circle cx="93.27" cy="178.17" r="4.27" fill="#f48a36" />
<circle cx="76.89" cy="393.41" r="4.27" fill="#f48a36" />
<circle cx="211.13" cy="249.28" r="4.27" fill="#f48a36" />
</svg>